<svg id="visual" viewBox="0 0 500 600" width="900" height="600" xmlns="http://www.w3.org/2000/svg"
    xmlns:xlink="http://www.w3.org/1999/xlink" version="1.1">
    <g fill="none" stroke="#b4a726" stroke-width="2">
        <path
            d="M14.8 8.6L14.8 38.3L-14.8 38.3L-14.8 8.6L-40.5 -6.3L-25.7 -32L0 -17.1L25.7 -32L40.5 -6.3Z"
            transform="translate(529 483)"></path>
        <path d="M1.1 0.6L1.1 2.8L-1.1 2.8L-1.1 0.6L-2.9 -0.5L-1.9 -2.3L0 -1.2L1.9 -2.3L2.9 -0.5Z"
            transform="translate(52 497)"></path>
        <path
            d="M4.6 2.6L4.6 11.8L-4.6 11.8L-4.6 2.6L-12.5 -1.9L-7.9 -9.9L0 -5.3L7.9 -9.9L12.5 -1.9Z"
            transform="translate(647 581)"></path>
        <path
            d="M9.7 5.6L9.7 25L-9.7 25L-9.7 5.6L-26.5 -4.1L-16.8 -20.9L0 -11.2L16.8 -20.9L26.5 -4.1Z"
            transform="translate(560 283)"></path>
        <path d="M4.3 2.5L4.3 11.1L-4.3 11.1L-4.3 2.5L-11.8 -1.8L-7.5 -9.3L0 -5L7.5 -9.3L11.8 -1.8Z"
            transform="translate(205 300)"></path>
        <path
            d="M10 5.8L10 25.7L-10 25.7L-10 5.8L-27.3 -4.2L-17.3 -21.5L0 -11.5L17.3 -21.5L27.3 -4.2Z"
            transform="translate(358 67)"></path>
        <path
            d="M8.4 4.8L8.4 21.6L-8.4 21.6L-8.4 4.8L-22.9 -3.5L-14.5 -18L0 -9.7L14.5 -18L22.9 -3.5Z"
            transform="translate(319 505)"></path>
        <path
            d="M9.4 5.5L9.4 24.3L-9.4 24.3L-9.4 5.5L-25.8 -4L-16.4 -20.4L0 -10.9L16.4 -20.4L25.8 -4Z"
            transform="translate(670 228)"></path>
        <path
            d="M10.3 5.9L10.3 26.4L-10.3 26.4L-10.3 5.9L-28 -4.3L-17.8 -22.1L0 -11.8L17.8 -22.1L28 -4.3Z"
            transform="translate(184 133)"></path>
        <path
            d="M13.2 7.6L13.2 34.1L-13.2 34.1L-13.2 7.6L-36.1 -5.6L-22.9 -28.5L0 -15.3L22.9 -28.5L36.1 -5.6Z"
            transform="translate(783 298)"></path>
        <path d="M2.7 1.6L2.7 7L-2.7 7L-2.7 1.6L-7.4 -1.1L-4.7 -5.8L0 -3.1L4.7 -5.8L7.4 -1.1Z"
            transform="translate(618 387)"></path>
        <path
            d="M9.7 5.6L9.7 25L-9.7 25L-9.7 5.6L-26.5 -4.1L-16.8 -20.9L0 -11.2L16.8 -20.9L26.5 -4.1Z"
            transform="translate(352 216)"></path>
        <path d="M1.3 0.8L1.3 3.5L-1.3 3.5L-1.3 0.8L-3.7 -0.6L-2.3 -2.9L0 -1.6L2.3 -2.9L3.7 -0.6Z"
            transform="translate(250 14)"></path>
        <path
            d="M8.1 4.7L8.1 20.9L-8.1 20.9L-8.1 4.7L-22.1 -3.4L-14 -17.4L0 -9.3L14 -17.4L22.1 -3.4Z"
            transform="translate(490 112)"></path>
        <path
            d="M9.7 5.6L9.7 25L-9.7 25L-9.7 5.6L-26.5 -4.1L-16.8 -20.9L0 -11.2L16.8 -20.9L26.5 -4.1Z"
            transform="translate(820 573)"></path>
        <path
            d="M7.8 4.5L7.8 20.2L-7.8 20.2L-7.8 4.5L-21.4 -3.3L-13.6 -16.9L0 -9L13.6 -16.9L21.4 -3.3Z"
            transform="translate(386 356)"></path>
        <path d="M3.2 1.9L3.2 8.3L-3.2 8.3L-3.2 1.9L-8.8 -1.4L-5.6 -7L0 -3.7L5.6 -7L8.8 -1.4Z"
            transform="translate(43 97)"></path>
        <path d="M3 1.7L3 7.7L-3 7.7L-3 1.7L-8.1 -1.3L-5.1 -6.4L0 -3.4L5.1 -6.4L8.1 -1.3Z"
            transform="translate(783 62)"></path>
        <path
            d="M13.2 7.6L13.2 34.1L-13.2 34.1L-13.2 7.6L-36.1 -5.6L-22.9 -28.5L0 -15.3L22.9 -28.5L36.1 -5.6Z"
            transform="translate(597 25)"></path>
        <path
            d="M10.8 6.2L10.8 27.8L-10.8 27.8L-10.8 6.2L-29.5 -4.6L-18.7 -23.3L0 -12.5L18.7 -23.3L29.5 -4.6Z"
            transform="translate(279 402)"></path>
        <path
            d="M5.7 3.3L5.7 14.6L-5.7 14.6L-5.7 3.3L-15.5 -2.4L-9.8 -12.2L0 -6.5L9.8 -12.2L15.5 -2.4Z"
            transform="translate(841 420)"></path>
        <path
            d="M5.7 3.3L5.7 14.6L-5.7 14.6L-5.7 3.3L-15.5 -2.4L-9.8 -12.2L0 -6.5L9.8 -12.2L15.5 -2.4Z"
            transform="translate(113 407)"></path>
        <path d="M3 1.7L3 7.7L-3 7.7L-3 1.7L-8.1 -1.3L-5.1 -6.4L0 -3.4L5.1 -6.4L8.1 -1.3Z"
            transform="translate(733 457)"></path>
        <path d="M3 1.7L3 7.7L-3 7.7L-3 1.7L-8.1 -1.3L-5.1 -6.4L0 -3.4L5.1 -6.4L8.1 -1.3Z"
            transform="translate(95 228)"></path>
        <path
            d="M7.3 4.2L7.3 18.8L-7.3 18.8L-7.3 4.2L-19.9 -3.1L-12.6 -15.7L0 -8.4L12.6 -15.7L19.9 -3.1Z"
            transform="translate(213 572)"></path>
        <path d="M4 2.3L4 10.4L-4 10.4L-4 2.3L-11.1 -1.7L-7 -8.7L0 -4.7L7 -8.7L11.1 -1.7Z"
            transform="translate(898 186)"></path>
        <path
            d="M11.1 6.4L11.1 28.5L-11.1 28.5L-11.1 6.4L-30.2 -4.7L-19.2 -23.8L0 -12.8L19.2 -23.8L30.2 -4.7Z"
            transform="translate(464 578)"></path>
        <path
            d="M7.8 4.5L7.8 20.2L-7.8 20.2L-7.8 4.5L-21.4 -3.3L-13.6 -16.9L0 -9L13.6 -16.9L21.4 -3.3Z"
            transform="translate(472 2)"></path>
        <path d="M2.7 1.6L2.7 7L-2.7 7L-2.7 1.6L-7.4 -1.1L-4.7 -5.8L0 -3.1L4.7 -5.8L7.4 -1.1Z"
            transform="translate(8 304)"></path>
        <path
            d="M8.1 4.7L8.1 20.9L-8.1 20.9L-8.1 4.7L-22.1 -3.4L-14 -17.4L0 -9.3L14 -17.4L22.1 -3.4Z"
            transform="translate(894 22)"></path>
        <path
            d="M14.3 8.3L14.3 36.9L-14.3 36.9L-14.3 8.3L-39.1 -6L-24.8 -30.8L0 -16.5L24.8 -30.8L39.1 -6Z"
            transform="translate(779 178)"></path>
        <path d="M5.1 3L5.1 13.2L-5.1 13.2L-5.1 3L-14 -2.2L-8.9 -11L0 -5.9L8.9 -11L14 -2.2Z"
            transform="translate(898 312)"></path>
        <path d="M3.2 1.9L3.2 8.3L-3.2 8.3L-3.2 1.9L-8.8 -1.4L-5.6 -7L0 -3.7L5.6 -7L8.8 -1.4Z"
            transform="translate(137 1)"></path>
        <path
            d="M14 8.1L14 36.2L-14 36.2L-14 8.1L-38.3 -5.9L-24.3 -30.2L0 -16.2L24.3 -30.2L38.3 -5.9Z"
            transform="translate(595 138)"></path>
    </g>
</svg>