<?xml version="1.0" encoding="utf-8"?>
<svg id="visual" viewBox="0 0 1800 600" width="1800" height="600" version="1.1"
    xmlns="http://www.w3.org/2000/svg">
    <path
        d="M0 429L12.5 434.7C25 440.3 50 451.7 75 456.2C100 460.7 125 458.3 150 459.8C175 461.3 200 466.7 225 468.3C250 470 275 468 300 449.5C325 431 350 396 375 375.5C400 355 425 349 450 361C475 373 500 403 525 418.2C550 433.3 575 433.7 600 438C625 442.3 650 450.7 675 450.5C700 450.3 725 441.7 750 425.5C775 409.3 800 385.7 825 378.3C850 371 875 380 887.5 384.5L900 389L900 601L887.5 601C875 601 850 601 825 601C800 601 775 601 750 601C725 601 700 601 675 601C650 601 625 601 600 601C575 601 550 601 525 601C500 601 475 601 450 601C425 601 400 601 375 601C350 601 325 601 300 601C275 601 250 601 225 601C200 601 175 601 150 601C125 601 100 601 75 601C50 601 25 601 12.5 601L0 601Z"
        fill="hsla(218, 83%, 67%, 0.9)" />
    <path
        d="M0 409L12.5 419.3C25 429.7 50 450.3 75 451C100 451.7 125 432.3 150 420.8C175 409.3 200 405.7 225 408.7C250 411.7 275 421.3 300 436.7C325 452 350 473 375 473C400 473 425 452 450 452C475 452 500 473 525 479.2C550 485.3 575 476.7 600 460C625 443.3 650 418.7 675 419.2C700 419.7 725 445.3 750 458C775 470.7 800 470.3 825 472.7C850 475 875 480 887.5 482.5L900 485L900 601L887.5 601C875 601 850 601 825 601C800 601 775 601 750 601C725 601 700 601 675 601C650 601 625 601 600 601C575 601 550 601 525 601C500 601 475 601 450 601C425 601 400 601 375 601C350 601 325 601 300 601C275 601 250 601 225 601C200 601 175 601 150 601C125 601 100 601 75 601C50 601 25 601 12.5 601L0 601Z"
        fill="hsla(57, 81%, 73%, 0.9)" />
    <path
        d="M 0 479 L 12.5 474.3 C 25 469.7 50 460.3 75 462.8 C 100 465.3 125 479.7 150 490 C 175 500.3 200 506.7 225 502.3 C 250 498 275 483 300 475.7 C 325 468.3 350 468.7 375 465.5 C 400 462.3 425 455.7 450 452.7 C 475 449.7 500 450.3 525 461.2 C 550 472 575 493 600 505.3 C 625 517.7 650 521.3 675 520.2 C 700 519 725 513 750 509 C 775 505 800.1 503.78 825 500.2 C 850 496.606 868.963 499.216 881.463 505.429 C 885.75 507.191 899.882 515.161 899.838 513.286 L 900 601 L 887.5 601 C 875 601 850 601 825 601 C 800 601 775 601 750 601 C 725 601 700 601 675 601 C 650 601 625 601 600 601 C 575 601 550 601 525 601 C 500 601 475 601 450 601 C 425 601 400 601 375 601 C 350 601 325 601 300 601 C 275 601 250 601 225 601 C 200 601 175 601 150 601 C 125 601 100 601 75 601 C 50 601 25 601 12.5 601 L 0 601 L 0 479 Z"
        fill="hsla(264, 89%, 55%, 0.9)" />
    <path
        d="M0 529L12.5 527.2C25 525.3 50 521.7 75 517C100 512.3 125 506.7 150 500.5C175 494.3 200 487.7 225 488.8C250 490 275 499 300 506.3C325 513.7 350 519.3 375 519C400 518.7 425 512.3 450 516.2C475 520 500 534 525 540.7C550 547.3 575 546.7 600 538.5C625 530.3 650 514.7 675 504.7C700 494.7 725 490.3 750 490.7C775 491 800 496 825 500.5C850 505 875 509 887.5 511L900 513L900 601L887.5 601C875 601 850 601 825 601C800 601 775 601 750 601C725 601 700 601 675 601C650 601 625 601 600 601C575 601 550 601 525 601C500 601 475 601 450 601C425 601 400 601 375 601C350 601 325 601 300 601C275 601 250 601 225 601C200 601 175 601 150 601C125 601 100 601 75 601C50 601 25 601 12.5 601L0 601Z"
        fill="hsla(163, 100%, 50%, 0.9)" />
    <path
        d="M0 560L12.5 562.7C25 565.3 50 570.7 75 572.3C100 574 125 572 150 571.8C175 571.7 200 573.3 225 566.7C250 560 275 545 300 536C325 527 350 524 375 526.5C400 529 425 537 450 540.2C475 543.3 500 541.7 525 543.8C550 546 575 552 600 551.2C625 550.3 650 542.7 675 543.8C700 545 725 555 750 560.2C775 565.3 800 565.7 825 567.7C850 569.7 875 573.3 887.5 575.2L900 577L900 601L887.5 601C875 601 850 601 825 601C800 601 775 601 750 601C725 601 700 601 675 601C650 601 625 601 600 601C575 601 550 601 525 601C500 601 475 601 450 601C425 601 400 601 375 601C350 601 325 601 300 601C275 601 250 601 225 601C200 601 175 601 150 601C125 601 100 601 75 601C50 601 25 601 12.5 601L0 601Z"
        fill="hsla(0, 81%, 86%, 0.9)" />
    <path
        d="M 899.96 526.861 L 912.46 521.161 C 924.96 515.561 949.96 504.161 974.96 499.661 C 999.96 495.161 1024.96 497.561 1049.96 496.061 C 1074.96 494.561 1099.96 489.161 1124.96 487.561 C 1149.96 485.861 1174.96 487.861 1199.96 506.361 C 1224.96 524.861 1249.96 559.861 1274.96 580.361 C 1299.96 600.861 1324.96 606.861 1349.96 594.861 C 1374.96 582.861 1399.96 552.861 1424.96 537.661 C 1449.96 522.561 1474.96 522.161 1499.96 517.861 C 1524.96 513.561 1549.96 505.161 1574.96 505.361 C 1599.96 505.561 1624.96 514.161 1649.96 530.361 C 1674.96 546.561 1699.96 570.161 1724.96 577.561 C 1749.96 584.861 1774.96 575.861 1787.46 571.361 L 1799.96 566.861 L 1799.96 354.861 L 1787.46 354.861 C 1774.96 354.861 1749.96 354.861 1724.96 354.861 C 1699.96 354.861 1674.96 354.861 1649.96 354.861 C 1624.96 354.861 1599.96 354.861 1574.96 354.861 C 1549.96 354.861 1524.96 354.861 1499.96 354.861 C 1474.96 354.861 1449.96 354.861 1424.96 354.861 C 1399.96 354.861 1374.96 354.861 1349.96 354.861 C 1324.96 354.861 1299.96 354.861 1274.96 354.861 C 1249.96 354.861 1224.96 354.861 1199.96 354.861 C 1174.96 354.861 1149.96 354.861 1124.96 354.861 C 1099.96 354.861 1074.96 354.861 1049.96 354.861 C 1024.96 354.861 999.96 354.861 974.96 354.861 C 949.96 354.861 924.96 354.861 912.46 354.861 L 899.96 354.861 L 899.96 526.861 Z"
        fill="hsla(218, 83%, 67%, 0.9)" transform="matrix(-1, 0, 0, -1, 2699.919983, 955.858368)" />
    <path
        d="M 899.96 599.689 L 912.46 589.389 C 924.96 578.989 949.96 558.389 974.96 557.689 C 999.96 556.989 1024.96 576.389 1049.96 587.889 C 1074.96 599.389 1099.96 602.989 1124.96 599.989 C 1149.96 596.989 1174.96 587.389 1199.96 571.989 C 1224.96 556.689 1249.96 535.689 1274.96 535.689 C 1299.96 535.689 1324.96 556.689 1349.96 556.689 C 1374.96 556.689 1399.96 535.689 1424.96 529.489 C 1449.96 523.389 1474.96 531.989 1499.96 548.689 C 1524.96 565.389 1549.96 589.989 1574.96 589.489 C 1599.96 588.989 1624.96 563.389 1649.96 550.689 C 1674.96 537.989 1699.96 538.389 1724.96 535.989 C 1749.96 533.689 1774.96 528.689 1787.46 526.189 L 1799.96 523.689 L 1799.96 407.689 L 1787.46 407.689 C 1774.96 407.689 1749.96 407.689 1724.96 407.689 C 1699.96 407.689 1674.96 407.689 1649.96 407.689 C 1624.96 407.689 1599.96 407.689 1574.96 407.689 C 1549.96 407.689 1524.96 407.689 1499.96 407.689 C 1474.96 407.689 1449.96 407.689 1424.96 407.689 C 1399.96 407.689 1374.96 407.689 1349.96 407.689 C 1324.96 407.689 1299.96 407.689 1274.96 407.689 C 1249.96 407.689 1224.96 407.689 1199.96 407.689 C 1174.96 407.689 1149.96 407.689 1124.96 407.689 C 1099.96 407.689 1074.96 407.689 1049.96 407.689 C 1024.96 407.689 999.96 407.689 974.96 407.689 C 949.96 407.689 924.96 407.689 912.46 407.689 L 899.96 407.689 L 899.96 599.689 Z"
        fill="hsla(57, 81%, 73%, 0.9)" transform="matrix(-1, 0, 0, -1, 2699.919983, 1008.685944)" />
    <path
        d="M 899.96 573.143 L 912.46 577.843 C 924.96 582.443 949.96 591.843 974.96 589.343 C 999.96 586.843 1024.96 572.443 1049.96 562.143 C 1074.96 551.843 1099.96 545.443 1124.96 549.843 C 1149.96 554.143 1174.96 569.143 1199.96 576.443 C 1224.96 583.843 1249.96 583.443 1274.96 586.643 C 1299.96 589.843 1324.96 596.443 1349.96 599.443 C 1374.96 602.443 1399.96 601.843 1424.96 590.943 C 1449.96 580.143 1474.96 559.143 1499.96 546.843 C 1524.96 534.443 1549.96 530.843 1574.96 531.943 C 1599.96 533.143 1624.96 539.143 1649.96 543.143 C 1674.96 547.143 1699.978 548.986 1724.96 551.943 C 1749.98 554.904 1774.902 551.335 1783.751 541.876 C 1783.751 539.93 1799.881 537.618 1799.881 539.1 L 1799.96 451.143 L 1787.46 451.143 C 1774.96 451.143 1749.96 451.143 1724.96 451.143 C 1699.96 451.143 1674.96 451.143 1649.96 451.143 C 1624.96 451.143 1599.96 451.143 1574.96 451.143 C 1549.96 451.143 1524.96 451.143 1499.96 451.143 C 1474.96 451.143 1449.96 451.143 1424.96 451.143 C 1399.96 451.143 1374.96 451.143 1349.96 451.143 C 1324.96 451.143 1299.96 451.143 1274.96 451.143 C 1249.96 451.143 1224.96 451.143 1199.96 451.143 C 1174.96 451.143 1149.96 451.143 1124.96 451.143 C 1099.96 451.143 1074.96 451.143 1049.96 451.143 C 1024.96 451.143 999.96 451.143 974.96 451.143 C 949.96 451.143 924.96 451.143 912.46 451.143 L 899.96 451.143 L 899.96 573.143 Z"
        fill="hsla(264, 89%, 55%, 0.9)" transform="matrix(-1, 0, 0, -1, 2699.919983, 1052.140564)" />
    <path
        d="M 899.96 560.676 L 912.46 562.476 C 924.96 564.376 949.96 567.976 974.96 572.676 C 999.96 577.376 1024.96 582.976 1049.96 589.176 C 1074.96 595.376 1099.96 601.976 1124.96 600.876 C 1149.96 599.676 1174.96 590.676 1199.96 583.376 C 1224.96 575.976 1249.96 570.376 1274.96 570.676 C 1299.96 570.976 1324.96 577.376 1349.96 573.476 C 1374.96 569.676 1399.96 555.676 1424.96 548.976 C 1449.96 542.376 1474.96 542.976 1499.96 551.176 C 1524.96 559.376 1549.96 574.976 1574.96 584.976 C 1599.96 594.976 1624.96 599.376 1649.96 598.976 C 1674.96 598.676 1699.96 593.676 1724.96 589.176 C 1749.96 584.676 1774.96 580.676 1787.46 578.676 L 1799.96 576.676 L 1799.96 488.676 L 1787.46 488.676 C 1774.96 488.676 1749.96 488.676 1724.96 488.676 C 1699.96 488.676 1674.96 488.676 1649.96 488.676 C 1624.96 488.676 1599.96 488.676 1574.96 488.676 C 1549.96 488.676 1524.96 488.676 1499.96 488.676 C 1474.96 488.676 1449.96 488.676 1424.96 488.676 C 1399.96 488.676 1374.96 488.676 1349.96 488.676 C 1324.96 488.676 1299.96 488.676 1274.96 488.676 C 1249.96 488.676 1224.96 488.676 1199.96 488.676 C 1174.96 488.676 1149.96 488.676 1124.96 488.676 C 1099.96 488.676 1074.96 488.676 1049.96 488.676 C 1024.96 488.676 999.96 488.676 974.96 488.676 C 949.96 488.676 924.96 488.676 912.46 488.676 L 899.96 488.676 L 899.96 560.676 Z"
        fill="hsla(163, 100%, 50%, 0.9)" transform="matrix(-1, 0, 0, -1, 2699.919983, 1089.672943)" />
    <path
        d="M 899.96 566.651 L 912.46 563.951 C 924.96 561.351 949.96 555.951 974.96 554.351 C 999.96 552.651 1024.96 554.651 1049.96 554.851 C 1074.96 554.951 1099.96 553.351 1124.96 559.951 C 1149.96 566.651 1174.96 581.651 1199.96 590.651 C 1224.96 599.651 1249.96 602.651 1274.96 600.151 C 1299.96 597.651 1324.96 589.651 1349.96 586.451 C 1374.96 583.351 1399.96 584.951 1424.96 582.851 C 1449.96 580.651 1474.96 574.651 1499.96 575.451 C 1524.96 576.351 1549.96 583.951 1574.96 582.851 C 1599.96 581.651 1624.96 571.651 1649.96 566.451 C 1674.96 561.351 1699.96 560.951 1724.96 558.951 C 1749.96 556.951 1774.96 553.351 1787.46 551.451 L 1799.96 549.651 L 1799.96 525.651 L 1787.46 525.651 C 1774.96 525.651 1749.96 525.651 1724.96 525.651 C 1699.96 525.651 1674.96 525.651 1649.96 525.651 C 1624.96 525.651 1599.96 525.651 1574.96 525.651 C 1549.96 525.651 1524.96 525.651 1499.96 525.651 C 1474.96 525.651 1449.96 525.651 1424.96 525.651 C 1399.96 525.651 1374.96 525.651 1349.96 525.651 C 1324.96 525.651 1299.96 525.651 1274.96 525.651 C 1249.96 525.651 1224.96 525.651 1199.96 525.651 C 1174.96 525.651 1149.96 525.651 1124.96 525.651 C 1099.96 525.651 1074.96 525.651 1049.96 525.651 C 1024.96 525.651 999.96 525.651 974.96 525.651 C 949.96 525.651 924.96 525.651 912.46 525.651 L 899.96 525.651 L 899.96 566.651 Z"
        fill="hsla(0, 81%, 86%, 0.9)" transform="matrix(-1, 0, 0, -1, 2699.919983, 1126.648499)" />
</svg>