<?xml version="1.0" encoding="utf-8"?>
<svg id="visual" viewBox="0 0 899.993 601.043" width="1800" height="600" version="1.1"
    xmlns="http://www.w3.org/2000/svg">
    <path
        d="M0 429L12.5 434.7C25 440.3 50 451.7 75 456.2C100 460.7 125 458.3 150 459.8C175 461.3 200 466.7 225 468.3C250 470 275 468 300 449.5C325 431 350 396 375 375.5C400 355 425 349 450 361C475 373 500 403 525 418.2C550 433.3 575 433.7 600 438C625 442.3 650 450.7 675 450.5C700 450.3 725 441.7 750 425.5C775 409.3 800 385.7 825 378.3C850 371 875 380 887.5 384.5L900 389L900 601L887.5 601C875 601 850 601 825 601C800 601 775 601 750 601C725 601 700 601 675 601C650 601 625 601 600 601C575 601 550 601 525 601C500 601 475 601 450 601C425 601 400 601 375 601C350 601 325 601 300 601C275 601 250 601 225 601C200 601 175 601 150 601C125 601 100 601 75 601C50 601 25 601 12.5 601L0 601Z"
        fill="hsla(218, 83%, 67%, 0.9)" />
    <path
        d="M0 409L12.5 419.3C25 429.7 50 450.3 75 451C100 451.7 125 432.3 150 420.8C175 409.3 200 405.7 225 408.7C250 411.7 275 421.3 300 436.7C325 452 350 473 375 473C400 473 425 452 450 452C475 452 500 473 525 479.2C550 485.3 575 476.7 600 460C625 443.3 650 418.7 675 419.2C700 419.7 725 445.3 750 458C775 470.7 800 470.3 825 472.7C850 475 875 480 887.5 482.5L900 485L900 601L887.5 601C875 601 850 601 825 601C800 601 775 601 750 601C725 601 700 601 675 601C650 601 625 601 600 601C575 601 550 601 525 601C500 601 475 601 450 601C425 601 400 601 375 601C350 601 325 601 300 601C275 601 250 601 225 601C200 601 175 601 150 601C125 601 100 601 75 601C50 601 25 601 12.5 601L0 601Z"
        fill="hsla(57, 81%, 73%, 0.9)" />
    <path
        d="M 0 479 L 12.5 474.3 C 25 469.7 50 460.3 75 462.8 C 100 465.3 125 479.7 150 490 C 175 500.3 200 506.7 225 502.3 C 250 498 275 483 300 475.7 C 325 468.3 350 468.7 375 465.5 C 400 462.3 425 455.7 450 452.7 C 475 449.7 500 450.3 525 461.2 C 550 472 575 493 600 505.3 C 625 517.7 650 521.3 675 520.2 C 700 519 725 513 750 509 C 775 505 800.1 503.78 825 500.2 C 850 496.606 868.963 499.216 881.463 505.429 C 885.75 507.191 899.882 515.161 899.838 513.286 L 900 601 L 887.5 601 C 875 601 850 601 825 601 C 800 601 775 601 750 601 C 725 601 700 601 675 601 C 650 601 625 601 600 601 C 575 601 550 601 525 601 C 500 601 475 601 450 601 C 425 601 400 601 375 601 C 350 601 325 601 300 601 C 275 601 250 601 225 601 C 200 601 175 601 150 601 C 125 601 100 601 75 601 C 50 601 25 601 12.5 601 L 0 601 L 0 479 Z"
        fill="hsla(264, 89%, 55%, 0.9)" />
    <path
        d="M0 529L12.5 527.2C25 525.3 50 521.7 75 517C100 512.3 125 506.7 150 500.5C175 494.3 200 487.7 225 488.8C250 490 275 499 300 506.3C325 513.7 350 519.3 375 519C400 518.7 425 512.3 450 516.2C475 520 500 534 525 540.7C550 547.3 575 546.7 600 538.5C625 530.3 650 514.7 675 504.7C700 494.7 725 490.3 750 490.7C775 491 800 496 825 500.5C850 505 875 509 887.5 511L900 513L900 601L887.5 601C875 601 850 601 825 601C800 601 775 601 750 601C725 601 700 601 675 601C650 601 625 601 600 601C575 601 550 601 525 601C500 601 475 601 450 601C425 601 400 601 375 601C350 601 325 601 300 601C275 601 250 601 225 601C200 601 175 601 150 601C125 601 100 601 75 601C50 601 25 601 12.5 601L0 601Z"
        fill="hsla(163, 100%, 50%, 0.9)" />
    <path
        d="M0 560L12.5 562.7C25 565.3 50 570.7 75 572.3C100 574 125 572 150 571.8C175 571.7 200 573.3 225 566.7C250 560 275 545 300 536C325 527 350 524 375 526.5C400 529 425 537 450 540.2C475 543.3 500 541.7 525 543.8C550 546 575 552 600 551.2C625 550.3 650 542.7 675 543.8C700 545 725 555 750 560.2C775 565.3 800 565.7 825 567.7C850 569.7 875 573.3 887.5 575.2L900 577L900 601L887.5 601C875 601 850 601 825 601C800 601 775 601 750 601C725 601 700 601 675 601C650 601 625 601 600 601C575 601 550 601 525 601C500 601 475 601 450 601C425 601 400 601 375 601C350 601 325 601 300 601C275 601 250 601 225 601C200 601 175 601 150 601C125 601 100 601 75 601C50 601 25 601 12.5 601L0 601Z"
        fill="hsla(0, 81%, 86%, 0.9)" />
</svg>